<svg width="52" height="58" viewBox="0 0 52 58" fill="none" xmlns="http://www.w3.org/2000/svg">
<g id="CS">
<path id="Vector" d="M12.3486 47.8065C13.097 47.8065 13.704 47.1995 13.704 46.4511V26.3871C13.704 25.6387 13.097 25.0317 12.3486 25.0317C10.2815 25.0317 8.25626 25.5916 6.49267 26.6539C5.41463 27.3029 4.47266 28.1035 3.68245 29.0194C3.83944 20.4735 6.53454 2.76963 26.0648 2.76963C39.8438 2.76963 48.1646 12.5609 48.4472 29.0141C47.6622 28.0983 46.7203 27.3029 45.6422 26.6539C43.8786 25.5916 41.8534 25.0317 39.7863 25.0317C39.0379 25.0317 38.4309 25.6387 38.4309 26.3871V46.4511C38.4309 47.1995 39.0379 47.8065 39.7863 47.8065C40.8538 47.8065 41.8848 47.6548 42.8634 47.3826V50.622L32.554 54.4265C31.8527 54.6882 31.4917 55.4679 31.7533 56.1692C31.9574 56.7187 32.4755 57.0588 33.025 57.0588C33.182 57.0588 33.339 57.0327 33.496 56.9751L44.6898 52.8461C45.2236 52.6472 45.5794 52.1396 45.5794 51.5744V46.2261C48.9287 44.2427 51.179 40.59 51.179 36.4243V29.8828C51.179 21.4835 49.1432 14.2984 45.2968 9.09657C40.9166 3.18305 34.2705 0.0588379 26.0701 0.0588379C17.6394 0.0588379 11.1502 3.04699 6.77004 8.9448C2.97073 14.0629 0.961186 21.3004 0.961186 29.8828V36.4243C0.955952 42.6937 6.06879 47.8065 12.3486 47.8065ZM41.1417 44.9858V27.8523C42.2354 28.025 43.2925 28.4071 44.245 28.9775C46.8825 30.5631 48.4577 33.342 48.4577 36.4191C48.4577 40.7365 45.2811 44.3317 41.1417 44.9858ZM7.88471 28.9775C8.83715 28.4018 9.89425 28.025 10.988 27.8523V44.9858C6.84853 44.3317 3.67198 40.7365 3.67198 36.4191C3.67198 33.342 5.24717 30.5579 7.88471 28.9775Z" fill="#333333"/>
</g>
</svg>
