<svg width="57" height="51" viewBox="0 0 57 51" fill="none" xmlns="http://www.w3.org/2000/svg">
<g id="CT">
<path id="Vector" d="M44.6454 45.2095C44.6454 42.2161 42.2119 39.7826 39.2185 39.7826C36.6961 39.7826 34.5715 41.5148 33.9696 43.8541H31.531C30.9239 41.5148 28.8045 39.7826 26.2821 39.7826C23.7597 39.7826 21.635 41.5148 21.0332 43.8541H20.8552V36.6637H44.6506C45.1478 36.6637 45.6083 36.3915 45.8438 35.9519L56.8387 15.5268C57.0637 15.1081 57.0533 14.5953 56.8073 14.1871C56.5614 13.7789 56.1218 13.5277 55.6403 13.5277H13.4189L9.23757 1.40238C9.04918 0.852896 8.53632 0.486572 7.95543 0.486572H1.35114C0.602793 0.486572 -0.00427246 1.09361 -0.00427246 1.84195C-0.00427246 2.5903 0.602793 3.19736 1.35114 3.19736H6.98727L18.134 35.528V45.2043C18.134 45.9526 18.741 46.5596 19.4894 46.5596H21.0227C21.6298 48.8989 23.7492 50.6311 26.2716 50.6311C28.794 50.6311 30.9187 48.8989 31.5205 46.5596H33.9592C34.5662 48.8989 36.6857 50.6311 39.2081 50.6311C42.2067 50.6415 44.6454 48.2028 44.6454 45.2095ZM53.3639 16.2437L43.8342 33.9529H20.4575L14.3504 16.2437H53.3639ZM26.2769 47.9255C24.7802 47.9255 23.5608 46.7062 23.5608 45.2095C23.5608 43.7128 24.7802 42.4934 26.2769 42.4934C27.7736 42.4934 28.9929 43.7128 28.9929 45.2095C28.9929 46.7062 27.7736 47.9255 26.2769 47.9255ZM39.2133 47.9255C37.7166 47.9255 36.4973 46.7062 36.4973 45.2095C36.4973 43.7128 37.7166 42.4934 39.2133 42.4934C40.71 42.4934 41.9293 43.7128 41.9293 45.2095C41.9293 46.7062 40.71 47.9255 39.2133 47.9255Z" fill="#333333"/>
</g>
</svg>
