<svg class='ht_svg'width="50" height="58" viewBox="0 0 50 58" fill="none" xmlns="http://www.w3.org/2000/svg">
    <style>
        .ht_svg path{
            fill : red;
        }
        </style>
<g id="HT">
<path id="Vector" d="M25.1987 57.0588C25.9471 57.0588 26.5541 56.4518 26.5541 55.7034V54.7876C39.0772 54.1073 49.1825 44.0962 49.8209 31.4319C49.8419 31.0603 49.7058 30.6992 49.4494 30.4271C49.193 30.1602 48.8371 30.0032 48.4655 30.0032H44.3941C43.6457 30.0032 43.0387 30.6102 43.0387 31.3586C43.0387 32.1069 43.6457 32.714 44.3941 32.714H46.9898C45.7757 43.2484 37.1566 51.4122 26.5541 52.0611V19.0554H35.3093C36.0576 19.0554 36.6647 18.4483 36.6647 17.7C36.6647 16.9516 36.0576 16.3445 35.3093 16.3445H26.5541V9.35824C28.5114 8.77212 29.9452 6.9562 29.9452 4.81059C29.9452 2.18876 27.8153 0.0588379 25.1935 0.0588379C22.5717 0.0588379 20.4418 2.18876 20.4418 4.81059C20.4418 6.9562 21.8757 8.77735 23.8329 9.35824V16.3445H15.0777C14.3294 16.3445 13.7223 16.9516 13.7223 17.7C13.7223 18.4483 14.3294 19.0554 15.0777 19.0554H23.8329V52.0611C13.2304 51.4122 4.61135 43.2537 3.39725 32.714H5.99289C6.74124 32.714 7.3483 32.1069 7.3483 31.3586C7.3483 30.6102 6.74124 30.0032 5.99289 30.0032H1.92148C1.54992 30.0032 1.19406 30.155 0.937637 30.4271C0.681211 30.694 0.545136 31.0603 0.566069 31.4319C1.20452 44.0962 11.3046 54.1073 23.8329 54.7876V55.7034C23.8433 56.4518 24.4504 57.0588 25.1987 57.0588ZM23.163 4.81059C23.163 3.68545 24.0736 2.77487 25.1987 2.77487C26.3239 2.77487 27.2345 3.68545 27.2345 4.81059C27.2345 5.93573 26.3239 6.84631 25.1987 6.84631C24.0788 6.84631 23.163 5.93049 23.163 4.81059Z" fill="#333333"/>
</g>
</svg>
