<svg width="40" height="51" viewBox="0 0 40 51" fill="none" xmlns="http://www.w3.org/2000/svg">
<g id="MB">
<path id="Vector" d="M0.351624 31.9198V49.3097C0.351624 50.0581 0.958657 50.6651 1.707 50.6651H38.0359C38.7842 50.6651 39.3913 50.0581 39.3913 49.3097V31.9198C39.3913 28.6438 37.748 25.6452 34.9954 23.9078C33.0381 22.6727 30.9606 21.6837 28.7888 20.9667C31.7246 17.8006 32.7608 13.3576 31.4159 9.05595C29.8041 3.89079 25.2773 0.515374 19.8819 0.452576C19.8714 0.452576 19.861 0.452576 19.8505 0.452576C14.4603 0.510141 9.93884 3.88557 8.32701 9.05073C6.98208 13.3577 8.01302 17.8006 10.9488 20.9667C8.77707 21.6889 6.69947 22.6727 4.74225 23.9078C1.99482 25.6452 0.351624 28.6438 0.351624 31.9198ZM6.1971 26.1999C8.6253 24.6666 11.2628 23.5571 14.0312 22.9135C14.5493 22.7931 14.9522 22.3744 15.0569 21.8511C15.1616 21.3278 14.947 20.7888 14.5074 20.48C10.3418 17.5285 9.92835 13.0541 10.9279 9.85141C11.9274 6.65393 14.8005 3.22094 19.8767 3.15815C24.0632 3.21048 27.5799 5.83754 28.8359 9.85663C29.8355 13.0541 29.4168 17.5285 25.2459 20.48C24.8116 20.7888 24.597 21.3226 24.6964 21.8511C24.8011 22.3744 25.1988 22.7879 25.7222 22.9135C28.4905 23.5624 31.128 24.6666 33.5562 26.1999C35.5135 27.4402 36.6857 29.5753 36.6857 31.9198V47.9491H3.07286V31.9198C3.06763 29.5806 4.23988 27.4402 6.1971 26.1999Z" fill="#333333"/>
</g>
</svg>
